<svg xmlns="http://www.w3.org/2000/svg" version="1.1" xmlns:xlink="http://www.w3.org/1999/xlink" xmlns:svgjs="http://svgjs.dev/svgjs" width="1440" height="560" preserveAspectRatio="none" viewBox="0 0 1440 560"><g mask="url(&quot;#SvgjsMask1054&quot;)" fill="none"><rect width="1440" height="560" x="0" y="0" fill="rgba(250, 230, 255, 1)"></rect><path d="M1232.767,406.989C1274.51,406.081,1297.487,363.501,1318.209,327.253C1338.703,291.403,1362.53,250.667,1342.899,214.338C1322.68,176.919,1275.299,168.96,1232.767,169.13C1190.614,169.299,1144.99,178.572,1124.15,215.213C1103.473,251.568,1120.025,294.722,1140.637,331.114C1161.651,368.216,1190.137,407.916,1232.767,406.989" fill="rgba(252, 238, 255, 1)" class="triangle-float2"></path><path d="M785.976431657476 439.56876597924054L916.1703003929932 394.73942189259196 871.3409563063447 264.5455531570748 741.1470875708275 309.37489724372335z" fill="rgba(252, 238, 255, 1)" class="triangle-float1"></path><path d="M639.006,492.335C679.921,489.736,720.559,477.462,742.545,442.859C766.155,405.7,769.313,358.654,748.641,319.784C726.674,278.479,685.765,249.677,639.006,248.175C589.611,246.588,542.388,270.256,516.452,312.324C489.178,356.562,480.619,414.681,509.866,457.64C536.751,497.13,591.329,495.364,639.006,492.335" fill="rgba(252, 238, 255, 1)" class="triangle-float1"></path><path d="M253.50303600222176 303.36544873837L207.7808466402525 397.1098292326317 301.5252271345141 442.832018594601 347.2474164964834 349.0876381003393z" fill="rgba(252, 238, 255, 1)" class="triangle-float2"></path><path d="M452.566,730.963C505.937,732.065,564.119,725.058,593.107,680.232C624.104,632.299,620.533,567.87,588.657,520.518C559.795,477.644,504.19,468.996,452.566,471.459C406.003,473.681,362.492,493.321,337.253,532.514C309.601,575.455,296.072,630.467,321.732,674.627C347.3,718.629,401.686,729.912,452.566,730.963" fill="rgba(252, 238, 255, 1)" class="triangle-float1"></path><path d="M103.57 12.87 a134.26 134.26 0 1 0 268.52 0 a134.26 134.26 0 1 0 -268.52 0z" fill="rgba(252, 238, 255, 1)" class="triangle-float3"></path><path d="M898.2973426812321 202.97327992445435L873.1938870048242 361.4702612249522 1031.690868305322 386.57371690136006 1056.79432398173 228.0767356008622z" fill="rgba(252, 238, 255, 1)" class="triangle-float2"></path><path d="M242.46782962487725 136.11670672116617L242.46782962487728 236.47714192474186 342.828264828453 236.47714192474183 342.8282648284529 136.11670672116614z" fill="rgba(252, 238, 255, 1)" class="triangle-float3"></path><path d="M284.42 26.01 a120.56 120.56 0 1 0 241.12 0 a120.56 120.56 0 1 0 -241.12 0z" fill="rgba(252, 238, 255, 1)" class="triangle-float1"></path><path d="M1301.598,488.206C1324.601,488.07,1347.752,479.972,1359.603,460.257C1371.781,439.998,1368.66,415.288,1358.16,394.111C1346.09,369.768,1328.742,344.48,1301.598,343.271C1273.004,341.997,1248.441,363.081,1235.577,388.65C1223.917,411.827,1228.055,439.327,1242.394,460.949C1255.263,480.355,1278.313,488.343,1301.598,488.206" fill="rgba(252, 238, 255, 1)" class="triangle-float1"></path></g><defs><mask id="SvgjsMask1054"><rect width="1440" height="560" fill="#ffffff"></rect></mask><style>
                @keyframes float1 {
                    0%{transform: translate(0, 0)}
                    50%{transform: translate(-10px, 0)}
                    100%{transform: translate(0, 0)}
                }

                .triangle-float1 {
                    animation: float1 5s infinite;
                }

                @keyframes float2 {
                    0%{transform: translate(0, 0)}
                    50%{transform: translate(-5px, -5px)}
                    100%{transform: translate(0, 0)}
                }

                .triangle-float2 {
                    animation: float2 4s infinite;
                }

                @keyframes float3 {
                    0%{transform: translate(0, 0)}
                    50%{transform: translate(0, -10px)}
                    100%{transform: translate(0, 0)}
                }

                .triangle-float3 {
                    animation: float3 6s infinite;
                }
            </style></defs></svg>