<?xml version="1.0"?>
<svg width="511.999" height="452.266" xmlns="http://www.w3.org/2000/svg" xmlns:svg="http://www.w3.org/2000/svg" clip-rule="evenodd" fill-rule="evenodd">

 <g class="layer">
  <title>Layer 1</title>
  <path d="m110.98,30.44c58.7,44.22 121.84,133.86 145.02,181.96c23.17,-48.1 86.32,-137.74 145.01,-181.96c42.37,-31.89 110.99,-56.58 110.99,21.96c0,15.68 -8.96,131.78 -14.22,150.63c-18.28,65.52 -84.88,82.23 -144.12,72.12c103.55,17.68 129.89,76.23 73,134.8c-108.04,111.22 -155.28,-27.91 -167.38,-63.56c-3.49,-10.26 -2.99,-10.5 -6.56,0c-12.1,35.65 -59.34,174.78 -167.38,63.56c-56.89,-58.57 -30.56,-117.12 72.99,-134.8c-59.23,10.11 -125.84,-6.6 -144.11,-72.12c-5.26,-18.85 -14.22,-134.95 -14.22,-150.63c0,-78.54 68.63,-53.86 110.98,-21.96z" fill="#ffffff" fill-rule="nonzero" id="svg_1"/>
 </g>
</svg>