<?xml version="1.0"?>
<svg width="90.2" height="159.3" xmlns="http://www.w3.org/2000/svg" xmlns:svg="http://www.w3.org/2000/svg" enable-background="new 0 0 90.2 159.3" version="1.1" xml:space="preserve">

 <style id="style1" type="text/css">.st0{fill:#FFFFFF;}
	.st1{fill:#001935;}
	.st2{fill:#231F20;}</style>
 <g class="layer">
  <title>Layer 1</title>
  <text class="st0" font-family="&#x27;MyriadPro-Regular&#x27;" font-size="45.82px" id="text1" transform="matrix(1 0 0 1 -696.6951 -356.281)">Black #ffffff</text>
  <text id="text4" transform="matrix(1 0 0 1 -1587.3539 -356.281)">
   <tspan class="st0" font-family="&#x27;MyriadPro-Regular&#x27;" font-size="45.82px" id="tspan1" x="0" y="0">Notes:</tspan>
   <tspan class="st0" font-family="&#x27;MyriadPro-Regular&#x27;" font-size="45.82px" id="tspan2" x="0" y="110">Always use the full wordmark</tspan>
   <tspan class="st0" font-family="&#x27;MyriadPro-Regular&#x27;" font-size="45.82px" id="tspan3" x="0" y="164.9">unless you’re explicitly speaking to</tspan>
   <tspan class="st0" font-family="&#x27;MyriadPro-Regular&#x27;" font-size="45.82px" id="tspan4" x="0" y="219.9">or marketing the iOS or Android app</tspan>
  </text>
  <text class="st0" font-family="&#x27;MyriadPro-Regular&#x27;" font-size="21.8px" id="text5" transform="matrix(1 0 0 1 -691.9711 189.9763)">iOS icon</text>
  <text class="st0" font-family="&#x27;MyriadPro-Regular&#x27;" font-size="21.8px" id="text6" transform="matrix(1 0 0 1 -696.6951 -111.0251)">Wordmark (always use full word)</text>
  <text class="st0" font-family="&#x27;MyriadPro-Regular&#x27;" font-size="21.8px" id="text7" transform="matrix(1 0 0 1 -369.3826 189.9763)">Android Icon</text>
  <text class="st0" font-family="&#x27;MyriadPro-Regular&#x27;" font-size="21.8px" id="text8" transform="matrix(1 0 0 1 -2.538842e-04 189.9763)">t icon</text>
  <text class="st0" font-family="&#x27;MyriadPro-Regular&#x27;" font-size="45.82px" id="text9" transform="matrix(1 0 0 1 -696.6951 363.683)">White #000000</text>
  <text class="st0" font-family="&#x27;MyriadPro-Regular&#x27;" font-size="21.8px" id="text10" transform="matrix(1 0 0 1 -691.9711 909.9404)">iOS icon</text>
  <text class="st0" font-family="&#x27;MyriadPro-Regular&#x27;" font-size="21.8px" id="text11" transform="matrix(1 0 0 1 -696.6951 608.9389)">Wordmark (always use full word)</text>
  <text class="st0" font-family="&#x27;MyriadPro-Regular&#x27;" font-size="21.8px" id="text12" transform="matrix(1 0 0 1 -369.3826 909.9404)">Android Icon</text>
  <text class="st0" font-family="&#x27;MyriadPro-Regular&#x27;" font-size="21.8px" id="text13" transform="matrix(1 0 0 1 -2.538842e-04 909.9404)">t icon</text>
  <text class="st0" font-family="&#x27;MyriadPro-Regular&#x27;" font-size="45.82px" id="text14" transform="matrix(1 0 0 1 239.2582 -356.281)">Blue #001935</text>
  <text class="st0" font-family="&#x27;MyriadPro-Regular&#x27;" font-size="21.8px" id="text15" transform="matrix(1 0 0 1 243.9822 189.9763)">iOS icon</text>
  <text class="st0" font-family="&#x27;MyriadPro-Regular&#x27;" font-size="21.8px" id="text16" transform="matrix(1 0 0 1 239.2582 -111.0251)">Wordmark (always use full word)</text>
  <text class="st0" font-family="&#x27;MyriadPro-Regular&#x27;" font-size="21.8px" id="text17" transform="matrix(1 0 0 1 566.5707 189.9763)">Android Icon</text>
  <text class="st0" font-family="&#x27;MyriadPro-Regular&#x27;" font-size="21.8px" id="text18" transform="matrix(1 0 0 1 935.953 189.9763)">t icon</text>
  <path class="st1" d="m302.9,-147.5c-24,0 -41.8,-12.3 -41.8,-41.8l0,-47.2l-21.8,0l0,-25.6c24,-6.2 34,-26.8 35.1,-44.7l24.9,0l0,40.6l29,0l0,29.7l-29,0l0,41.1c0,12.3 6.2,16.6 16.1,16.6l14.1,0l0,31.3l-26.6,0zm89,1.4c13.6,0 29.3,-5.9 37.8,-16.4l0,15l44.8,0l0,-25.5l-11.4,0l0,-93.3l-54.1,0l0,25.9l15.4,0l0,44.9c0,3.6 -3,18.7 -23.3,18.7c-13,0 -15.4,-7.8 -15.4,-17.7l0,-71.8l-39.9,0l0,73.4c0,18.3 8.3,46.8 46.1,46.8zm96.9,-1.4l65.6,0l0,-25.5l-13.4,0l0,-44.4c0,-6.5 5.5,-19.7 22.4,-19.7c13.6,0 16.4,8.3 16.4,18.1l0,46l-13.2,0l0,25.5l65.1,0l0,-25.5l-13.7,0l0,-44.4c0,-6.5 5,-19.7 21.9,-19.7c13.7,0 17.1,8.3 17.1,18.1l0,46l-13,0l0,25.5l64.8,0l0,-25.5l-13.3,0l0,-41.5c0,-24.4 -9.2,-53.2 -45.6,-53.2c-18,0 -32.7,8.5 -38.9,19c-7.8,-11.9 -19.7,-19 -37.4,-19c-14.1,0 -29.5,6 -37.8,17.4l0,-16l-49.2,0l0,25.9l15.9,0l0,67.4l-13.5,0l0,25.5l-0.2,0zm303,1.4c33.2,0 51,-24.9 51,-62.2c0,-35.8 -16.6,-59.3 -50.3,-59.3c-11.9,0 -23.7,4.5 -30.9,10l0,-49.2l-54.8,0l0,25.7l15.9,0l0,133.6l36.5,0l0,-10.5c9.4,7.8 20.5,11.9 32.6,11.9zm-8.3,-29c-11.6,0 -23,-7.4 -23,-30.6c0,-28 13.5,-33 22.8,-33c10.8,0 20.4,8.8 20.4,30.5c0,31.4 -14.1,32.4 -20.2,33.1zm66.5,27.6l66,0l0,-25.5l-14,0l0,-133.9l-54.4,0l0,25.7l15.9,0l0,108.2l-13.5,0l0,25.5zm80.4,0l64.9,0l0,-25.5l-13.3,0l0,-33.2c0,-22.6 15.9,-27.5 28,-27.5l16.1,0l0,-34l-13,0c-14.7,0 -28.3,7.1 -34.4,18.5l0,-17.2l-49.4,0l0,25.9l14.3,0l0,67.4l-13.1,0l0,25.6l-0.1,0z" id="path18"/>
  <path class="st1" d="m999.6,159.3c-24,0 -41.8,-12.3 -41.8,-41.8l0,-47.2l-21.8,0l0,-25.6c24,-6.2 34,-26.8 35.1,-44.7l24.9,0l0,40.6l29,0l0,29.7l-29,0l0,41.1c0,12.3 6.2,16.6 16.1,16.6l14.1,0l0,31.3l-26.6,0z" id="path19"/>
  <g id="g21">
   <path class="st1" d="m645.1,1.3c-43.4,0 -78.6,35.1 -78.6,78.3s35.1,78.5 78.6,78.5c43.2,0 78.3,-35.3 78.3,-78.5c0.1,-43.4 -35.1,-78.3 -78.3,-78.3z" id="path20"/>
   <path class="st0" d="m651.2,97.3c0,7.1 3.6,9.5 9.2,9.5l8.1,0l0,18l-15.3,0c-13.7,0 -24,-7.1 -24,-24l0,-27.1l-12.5,0l0,-14.7c13.7,-3.6 19.5,-15.4 20.2,-25.6l14.3,0l0,23.3l16.6,0l0,17l-16.6,0l0,23.6" id="path21"/>
  </g>
  <g id="g23">
   <path class="st1" d="m359.9,7.3l-87,0c-15.9,0 -28.9,13 -28.9,28.9l0,87c0,15.9 13,28.9 28.9,28.9l87,0c15.9,0 28.9,-13 28.9,-28.9l0,-87c0,-15.9 -13,-28.9 -28.9,-28.9z" id="path22"/>
   <path class="st0" d="m341.3,124.8l-15.3,0c-13.7,0 -24,-7.1 -24,-24l0,-27.1l-12.5,0l0,-14.7c13.7,-3.6 19.5,-15.4 20.2,-25.6l14.3,0l0,23.3l16.6,0l0,17l-16.6,0l0,23.6c0,7.1 3.6,9.5 9.2,9.5l8.1,0l0,18z" id="path23"/>
  </g>
  <path class="st0" d="m-633.1,573.9c-24,0 -41.8,-12.3 -41.8,-41.8l0,-47.2l-21.8,0l0,-25.6c24,-6.2 34,-26.8 35.1,-44.7l24.9,0l0,40.6l29,0l0,29.7l-29,0l0,41.1c0,12.3 6.2,16.6 16.1,16.6l14.1,0l0,31.3l-26.6,0zm89.1,1.4c13.6,0 29.3,-5.9 37.8,-16.4l0,15l44.8,0l0,-25.5l-11.4,0l0,-93.3l-54.2,0l0,25.9l15.4,0l0,45c0,3.6 -3,18.7 -23.3,18.7c-13,0 -15.4,-7.8 -15.4,-17.7l0,-71.8l-39.9,0l0,73.4c0.1,18.3 8.4,46.7 46.2,46.7zm96.9,-1.4l65.6,0l0,-25.5l-13.4,0l0,-44.4c0,-6.5 5.5,-19.7 22.4,-19.7c13.6,0 16.4,8.3 16.4,18.1l0,46l-13.2,0l0,25.5l65.1,0l0,-25.5l-13.8,0l0,-44.4c0,-6.5 5,-19.7 21.9,-19.7c13.7,0 17.1,8.3 17.1,18.1l0,46l-13,0l0,25.5l64.8,0l0,-25.5l-13.3,0l0,-41.4c0,-24.4 -9.2,-53.2 -45.6,-53.2c-18,0 -32.7,8.5 -38.9,19c-7.8,-11.9 -19.7,-19 -37.4,-19c-14.1,0 -29.5,6 -37.8,17.4l0,-16l-49.2,0l0,25.9l15.9,0l0,67.4l-13.5,0l0,25.4l-0.1,0zm303,1.4c33.2,0 51,-24.9 51,-62.2c0,-35.8 -16.6,-59.3 -50.3,-59.3c-11.9,0 -23.7,4.5 -30.9,10l0,-49.2l-54.8,0l0,25.7l15.9,0l0,133.6l36.5,0l0,-10.5c9.3,7.9 20.5,11.9 32.6,11.9zm-8.3,-28.9c-11.6,0 -23,-7.4 -23,-30.6c0,-28 13.5,-33 22.8,-33c10.8,0 20.4,8.8 20.4,30.5c-0.1,31.4 -14.1,32.4 -20.2,33.1zm66.5,27.5l66,0l0,-25.5l-14.1,0l0,-133.8l-54.4,0l0,25.7l15.9,0l0,108.2l-13.5,0l0,25.4l0.1,0zm80.4,0l64.9,0l0,-25.5l-13.3,0l0,-33.2c0,-22.6 15.9,-27.5 28,-27.5l16.1,0l0,-34l-13,0c-14.7,0 -28.3,7.1 -34.4,18.5l0,-17.2l-49.5,0l0,25.9l14.3,0l0,67.4l-13.1,0l0,25.6z" id="path24"/>
  <path class="st0" d="m63.6,880.8c-24,0 -41.8,-12.3 -41.8,-41.8l0,-47.2l-21.8,0l0,-25.6c24,-6.2 34,-26.8 35.1,-44.7l24.9,0l0,40.5l29,0l0,29.7l-29,0l0,41.1c0,12.3 6.2,16.6 16.1,16.6l14.1,0l0,31.3l-26.6,0l0,0.1z" id="path25"/>
  <g id="g27">
   <path class="st0" d="m-290.8,722.7c-43.4,0 -78.6,35.1 -78.6,78.3c0,43.2 35.1,78.5 78.6,78.5c43.2,0 78.3,-35.3 78.3,-78.5c0,-43.4 -35.1,-78.3 -78.3,-78.3z" id="path26"/>
   <path class="st2" d="m-284.7,818.8c0,7.1 3.6,9.5 9.2,9.5l8.1,0l0,18l-15.3,0c-13.7,0 -24,-7.1 -24,-24l0,-27.1l-12.5,0l0,-14.7c13.7,-3.6 19.5,-15.4 20.2,-25.6l14.3,0l0,23.3l16.6,0l0,17l-16.6,0l0,23.6" id="path27"/>
  </g>
  <g id="g29">
   <path class="st0" d="m-576.1,728.7l-87,0c-15.9,0 -28.9,13 -28.9,28.9l0,87c0,15.9 13,28.9 28.9,28.9l87,0c15.9,0 28.9,-13 28.9,-28.9l0,-87c0.1,-15.9 -13,-28.9 -28.9,-28.9z" id="path28"/>
   <path class="st2" d="m-594.6,846.2l-15.3,0c-13.7,0 -24,-7.1 -24,-24l0,-27.1l-12.5,0l0,-14.7c13.7,-3.6 19.5,-15.4 20.2,-25.6l14.3,0l0,23.3l16.6,0l0,17l-16.6,0l0,23.6c0,7.1 3.6,9.5 9.2,9.5l8.1,0l0,18z" id="path29"/>
  </g>
  <path d="m-633.1,-147.5c-24,0 -41.8,-12.3 -41.8,-41.8l0,-47.2l-21.8,0l0,-25.6c24,-6.2 34,-26.8 35.1,-44.7l24.9,0l0,40.6l29,0l0,29.7l-29,0l0,41.1c0,12.3 6.2,16.6 16.1,16.6l14.1,0l0,31.3l-26.6,0zm89.1,1.4c13.6,0 29.3,-5.9 37.8,-16.4l0,15l44.8,0l0,-25.5l-11.4,0l0,-93.3l-54.2,0l0,25.9l15.4,0l0,44.9c0,3.6 -3,18.7 -23.3,18.7c-13,0 -15.4,-7.8 -15.4,-17.7l0,-71.8l-39.9,0l0,73.4c0.1,18.3 8.4,46.8 46.2,46.8zm96.9,-1.4l65.6,0l0,-25.5l-13.4,0l0,-44.4c0,-6.5 5.5,-19.7 22.4,-19.7c13.6,0 16.4,8.3 16.4,18.1l0,46l-13.2,0l0,25.5l65.1,0l0,-25.5l-13.8,0l0,-44.4c0,-6.5 5,-19.7 21.9,-19.7c13.7,0 17.1,8.3 17.1,18.1l0,46l-13,0l0,25.5l64.8,0l0,-25.5l-13.3,0l0,-41.5c0,-24.4 -9.2,-53.2 -45.6,-53.2c-18,0 -32.7,8.5 -38.9,19c-7.8,-11.9 -19.7,-19 -37.4,-19c-14.1,0 -29.5,6 -37.8,17.4l0,-16l-49.2,0l0,25.9l15.9,0l0,67.4l-13.5,0l0,25.5l-0.1,0zm303,1.4c33.2,0 51,-24.9 51,-62.2c0,-35.8 -16.6,-59.3 -50.3,-59.3c-11.9,0 -23.7,4.5 -30.9,10l0,-49.2l-54.8,0l0,25.7l15.9,0l0,133.6l36.5,0l0,-10.5c9.3,7.8 20.5,11.9 32.6,11.9zm-8.3,-29c-11.6,0 -23,-7.4 -23,-30.6c0,-28 13.5,-33 22.8,-33c10.8,0 20.4,8.8 20.4,30.5c-0.1,31.4 -14.1,32.4 -20.2,33.1zm66.5,27.6l66,0l0,-25.5l-14.1,0l0,-133.9l-54.4,0l0,25.7l15.9,0l0,108.2l-13.5,0l0,25.5l0.1,0zm80.4,0l64.9,0l0,-25.5l-13.3,0l0,-33.2c0,-22.6 15.9,-27.5 28,-27.5l16.1,0l0,-34l-13,0c-14.7,0 -28.3,7.1 -34.4,18.5l0,-17.2l-49.5,0l0,25.9l14.3,0l0,67.4l-13.1,0l0,25.6z" id="path30"/>
  <path d="m63.6,159.3c-24,0 -41.8,-12.3 -41.8,-41.8l0,-47.2l-21.8,0l0,-25.6c24,-6.2 34,-26.8 35.1,-44.7l24.9,0l0,40.6l29,0l0,29.7l-29,0l0,41.1c0,12.3 6.2,16.6 16.1,16.6l14.1,0l0,31.3l-26.6,0z" fill="#ffffff" id="path31"/>
  <g id="g33">
   <path d="m-290.8,1.3c-43.4,0 -78.6,35.1 -78.6,78.3s35.1,78.5 78.6,78.5c43.2,0 78.3,-35.3 78.3,-78.5c0,-43.4 -35.1,-78.3 -78.3,-78.3z" id="path32"/>
   <path class="st0" d="m-284.7,97.3c0,7.1 3.6,9.5 9.2,9.5l8.1,0l0,18l-15.3,0c-13.7,0 -24,-7.1 -24,-24l0,-27.1l-12.5,0l0,-14.7c13.7,-3.6 19.5,-15.4 20.2,-25.6l14.3,0l0,23.3l16.6,0l0,17l-16.6,0l0,23.6" id="path33"/>
  </g>
  <g id="g35">
   <path d="m-576.1,7.3l-87,0c-15.9,0 -28.9,13 -28.9,28.9l0,87c0,15.9 13,28.9 28.9,28.9l87,0c15.9,0 28.9,-13 28.9,-28.9l0,-87c0.1,-15.9 -13,-28.9 -28.9,-28.9z" id="path34"/>
   <path class="st0" d="m-594.6,124.8l-15.3,0c-13.7,0 -24,-7.1 -24,-24l0,-27.1l-12.5,0l0,-14.7c13.7,-3.6 19.5,-15.4 20.2,-25.6l14.3,0l0,23.3l16.6,0l0,17l-16.6,0l0,23.6c0,7.1 3.6,9.5 9.2,9.5l8.1,0l0,18z" id="path35"/>
  </g>
 </g>
</svg>